<?xml version="1.0" encoding="UTF-8"?>
<svg version="1.1" xmlns="http://www.w3.org/2000/svg" width="1076" height="1079">
<path d="M0 0 C355.08 0 710.16 0 1076 0 C1076 356.07 1076 712.14 1076 1079 C720.92 1079 365.84 1079 0 1079 C0 722.93 0 366.86 0 0 Z " fill="#FEFEFE" transform="translate(0,0)"/>
<path d="M0 0 C6.5175 -0.061875 13.035 -0.12375 19.75 -0.1875 C21.78124023 -0.21481201 23.81248047 -0.24212402 25.90527344 -0.27026367 C39.06162085 -0.37441326 51.6073166 -0.13732956 62 9 C68.4658594 15.84129639 70.51761918 22.81441345 70.3125 32.16015625 C69.46628512 39.85013394 65.95372773 47.0024384 60 52 C50.13760483 58.31730934 40.41097087 59.31172171 28.9375 59.125 C25.328125 59.08375 21.71875 59.0425 18 59 C18 66.26 18 73.52 18 81 C12.06 81 6.12 81 0 81 C0 54.27 0 27.54 0 0 Z " fill="#020202" transform="translate(519,516)"/>
<path d="M0 0 C7.11968981 4.56417338 11.18319965 10.09478612 14 18 C14 22.95 14 27.9 14 33 C-1.51 33 -17.02 33 -33 33 C-28.9582883 40.49855706 -28.9582883 40.49855706 -22 44 C-14.560659 44.82555108 -8.64664676 44.39403239 -2 41 C2 41 2 41 4.140625 42.75 C4.83671875 43.4925 5.5328125 44.235 6.25 45 C6.95640625 45.7425 7.6628125 46.485 8.390625 47.25 C8.92171875 47.8275 9.4528125 48.405 10 49 C8.53692696 53.38921913 5.647823 54.40729792 1.7421875 56.63671875 C-7.94578757 61.45310521 -19.85803694 61.38065435 -30 58 C-39.29804404 54.07222812 -44.45231646 49.05414941 -49 40 C-51.66134609 33.40339333 -52.31553887 25.3263598 -50.2421875 18.5078125 C-49.27726195 16.25125431 -48.20630871 14.13617167 -47 12 C-46.4225 10.948125 -45.845 9.89625 -45.25 8.8125 C-33.83691255 -5.45385931 -16.06482043 -7.28162155 0 0 Z " fill="#030303" transform="translate(823,538)"/>
<path d="M0 0 C4.53477584 2.85823819 6.86024359 5.22960136 10.3359375 9.57421875 C6.7059375 12.87421875 3.0759375 16.17421875 -0.6640625 19.57421875 C-4.21780406 17.79734797 -7.43652186 15.84615962 -10.76171875 13.6953125 C-16.21509908 10.48151342 -22.55688701 10.96906583 -28.6640625 11.57421875 C-35.5072769 13.65328798 -40.85071566 17.49347649 -44.6640625 23.57421875 C-47.95022035 30.27161311 -47.92547162 38.47057877 -45.75390625 45.53515625 C-42.53892633 52.41996856 -38.10673872 57.27964909 -30.8359375 60.0625 C-22.47156176 62.03324321 -15.15044838 61.08911326 -7.6875 56.9609375 C-5.76926925 55.6463199 -4.23575957 54.28106175 -2.6640625 52.57421875 C0.81368929 54.08975279 3.2917359 56.15156435 6.0859375 58.69921875 C6.88515625 59.42367187 7.684375 60.148125 8.5078125 60.89453125 C9.11109375 61.44882812 9.714375 62.003125 10.3359375 62.57421875 C4.70357861 70.39693943 -3.74993055 75.41639236 -13.2890625 77.32421875 C-28.07884428 78.88103788 -40.7001171 77.08994366 -52.6640625 67.57421875 C-53.29054687 67.084375 -53.91703125 66.59453125 -54.5625 66.08984375 C-62.06026701 59.47609293 -66.24102212 49.2371048 -66.8671875 39.375 C-67.05291798 25.55355673 -63.80547484 16.19277735 -54.5390625 5.88671875 C-40.0924384 -7.91783317 -17.09696287 -9.15013409 0 0 Z " fill="#030303" transform="translate(289.6640625,520.42578125)"/>
<path d="M0 0 C5.94 0 11.88 0 18 0 C18.03738281 2.75730469 18.07476563 5.51460937 18.11328125 8.35546875 C18.15952457 11.03303857 18.21074799 13.71047015 18.26245117 16.38793945 C18.29565549 18.2452755 18.32370141 20.10271137 18.34643555 21.96020508 C18.38006442 24.63405798 18.43238374 27.30699993 18.48828125 29.98046875 C18.49467117 30.80773972 18.5010611 31.63501068 18.50764465 32.48735046 C18.62562122 37.13885658 19.03492992 40.1967053 22 44 C25.50402469 46.72535253 29.75492688 46.50809755 34 46 C38.7766371 44.4384071 40.77285662 42.41010834 43.1661377 38.02023315 C44.60290119 34.53932602 44.60328398 31.16613692 44.609375 27.44140625 C44.62591125 26.65225327 44.64244751 25.86310028 44.65948486 25.05003357 C44.70768363 22.55410768 44.7292719 20.0587897 44.75 17.5625 C44.7781834 15.85999592 44.80811412 14.15751981 44.83984375 12.45507812 C44.91669453 8.30311343 44.95747033 4.15302203 45 0 C50.61 0 56.22 0 62 0 C62 20.46 62 40.92 62 62 C56.72 62 51.44 62 46 62 C46 59.69 46 57.38 46 55 C45.34 55 44.68 55 44 55 C44 55.66 44 56.32 44 57 C42.56429734 57.81567174 41.12636566 58.62742093 39.6875 59.4375 C38.48673828 60.11619141 38.48673828 60.11619141 37.26171875 60.80859375 C30.87759303 64.17156153 22.96959472 64.20602129 16.1328125 62.12890625 C8.19139497 58.44785405 3.66015911 53.54506449 0.64375305 45.33650208 C-0.49941673 41.1873667 -0.36658639 37.08811655 -0.29296875 32.8125 C-0.28872391 31.86938965 -0.28447906 30.9262793 -0.28010559 29.95458984 C-0.2634357 26.96942482 -0.22580575 23.98495782 -0.1875 21 C-0.17243804 18.96485356 -0.15875229 16.92969645 -0.14648438 14.89453125 C-0.11357055 9.9294223 -0.06186999 4.96482913 0 0 Z " fill="#020202" transform="translate(602,535)"/>
<path d="M0 0 C1.06528748 2.73019786 1.07998186 3.79298812 0.00390625 6.578125 C-0.47175781 7.45984375 -0.94742188 8.3415625 -1.4375 9.25 C-1.91058594 10.14203125 -2.38367188 11.0340625 -2.87109375 11.953125 C-3.24363281 12.62859375 -3.61617187 13.3040625 -4 14 C-6.80350264 13.47345382 -9.35902545 12.87544015 -12.0625 11.9375 C-17.77097813 10.26519253 -24.56633829 10.043938 -30.30078125 11.640625 C-32.33361257 12.98193878 -32.33361257 12.98193878 -32.75 16.125 C-32.8325 17.07375 -32.915 18.0225 -33 19 C-32.45174561 19.10022461 -31.90349121 19.20044922 -31.33862305 19.30371094 C-3.84198216 24.3927965 -3.84198216 24.3927965 1.125 30.125 C4.26073999 34.93313466 4.63535086 38.31814798 4 44 C2.45813649 49.22004392 -0.22015422 53.06550563 -4.83984375 55.96875 C-17.80015263 62.1559499 -32.60426942 61.14763206 -46 57 C-48.15600294 56.12817367 -50.00289695 55.19826183 -52 54 C-51.54554036 52.58208592 -51.08625056 51.16571954 -50.625 49.75 C-50.36976563 48.96109375 -50.11453125 48.1721875 -49.8515625 47.359375 C-49.04826333 45.13372042 -48.10288338 43.09068328 -47 41 C-43.69531244 41.59926553 -40.66100985 42.44207356 -37.5 43.5625 C-29.86803366 45.90815682 -21.75343242 45.77712684 -14 44 C-14 42.35 -14 40.7 -14 39 C-18.94527176 36.67848751 -23.52778887 35.38743559 -28.9375 34.5625 C-37.78776854 33.0505622 -44.82347321 30.84713751 -50.25 23.25 C-51.85631219 18.43106344 -51.33874555 14.20678102 -50 9.4375 C-46.93879197 4.1760487 -42.7665127 0.4491257 -37.375 -2.375 C-24.35172019 -5.8021789 -12.46356919 -4.30175578 0 0 Z " fill="#040404" transform="translate(762,538)"/>
<path d="M0 0 C3.29351492 2.69469402 6.55218947 5.56417767 8.75 9.25 C7.44432208 13.16703377 5.94905398 13.56757187 2.375 15.5 C1.39789063 16.04140625 0.42078125 16.5828125 -0.5859375 17.140625 C-3.25 18.25 -3.25 18.25 -6.25 17.25 C-7.91666667 15.58333333 -9.58333333 13.91666667 -11.25 12.25 C-15.59798948 10.80067017 -19.70595345 10.73330935 -24.25 11.25 C-28.76253037 13.54728819 -32.05974469 16.2202592 -33.9375 21 C-34.85632748 27.61555783 -34.55285518 32.32763899 -31.25 38.25 C-26.36331519 42.77912251 -23.284999 43.54369407 -16.79296875 43.46875 C-12.23884195 43.07699716 -9.32069725 41.4991468 -6.375 38.0625 C-6.00375 37.464375 -5.6325 36.86625 -5.25 36.25 C-0.27790438 38.01429199 4.18438061 40.6439166 8.75 43.25 C7.38657645 48.87412214 3.23252165 51.96931387 -1.25 55.25 C-9.60921321 59.97775173 -19.95861035 60.6205652 -29.2265625 58.6015625 C-37.60600385 55.83988747 -44.70784417 51.44527132 -49.1875 43.6875 C-49.90117172 42.22078157 -50.59215416 40.74259141 -51.25 39.25 C-51.8996875 37.8578125 -51.8996875 37.8578125 -52.5625 36.4375 C-54.72361396 26.41778984 -53.39244842 16.98147868 -48 8.21875 C-36.57150075 -6.5863513 -15.75419317 -8.48302709 0 0 Z " fill="#040404" transform="translate(498.25,538.75)"/>
<path d="M0 0 C0.99 0.495 0.99 0.495 2 1 C1.14234707 14.67730732 0.06647202 28.33767069 -1 42 C-0.34 42 0.32 42 1 42 C1.99621697 43.36905267 2.94649701 44.77164843 3.875 46.1875 C9.4787463 53.47350685 17.20243124 55.13973309 25.6328125 57.75 C26.62788818 58.0598584 27.62296387 58.3697168 28.64819336 58.68896484 C30.66004073 59.30856665 32.67652973 59.91330991 34.69750977 60.50244141 C35.62619873 60.78265137 36.5548877 61.06286133 37.51171875 61.3515625 C38.35178467 61.59729004 39.19185059 61.84301758 40.05737305 62.09619141 C41.01897339 62.54357666 41.01897339 62.54357666 42 63 C42.495 64.485 42.495 64.485 43 66 C41.92105469 65.97905273 40.84210938 65.95810547 39.73046875 65.93652344 C35.69756532 65.86369576 31.6647191 65.81804616 27.63134766 65.78027344 C25.89133911 65.76025478 24.15139701 65.73303114 22.41162109 65.69824219 C19.89924654 65.64929048 17.38776725 65.62693413 14.875 65.609375 C13.72294067 65.57840729 13.72294067 65.57840729 12.54760742 65.54681396 C5.91902499 65.54410827 1.16172511 67.64790066 -4.12133789 71.578125 C-10.01377734 77.98006461 -12.02636157 85.85443691 -14.4375 94 C-14.88548464 95.45761197 -15.33534064 96.91465017 -15.78710938 98.37109375 C-16.87971838 101.90771079 -17.94683106 105.45141018 -19 109 C-19.99 109 -20.98 109 -22 109 C-21.9278125 107.93265625 -21.855625 106.8653125 -21.78125 105.765625 C-21.46512501 100.84613932 -21.22155155 95.92456857 -21 91 C-20.9577832 90.12408203 -20.91556641 89.24816406 -20.87207031 88.34570312 C-20.09640882 73.90520297 -20.09640882 73.90520297 -26 61 C-26.99 61 -27.98 61 -29 61 C-29.91007813 60.44183594 -30.82015625 59.88367188 -31.7578125 59.30859375 C-38.19417144 55.46066007 -45.78312779 53.63835295 -52.91894531 51.42993164 C-54.88736169 50.81687666 -56.84589858 50.17820162 -58.8046875 49.53515625 C-60.55241455 48.98420288 -60.55241455 48.98420288 -62.33544922 48.42211914 C-65 47 -65 47 -65.88720703 44.34155273 C-65.92442871 43.56884033 -65.96165039 42.79612793 -66 42 C-60.26948714 41.89604512 -54.80619496 42.29841203 -49.125 43 C-42.48093766 43.74283076 -35.87364274 44.26381908 -29.1875 44.375 C-28.08656006 44.41367187 -28.08656006 44.41367187 -26.96337891 44.453125 C-20.33204694 44.47770256 -17.08658313 41.97576308 -12.42578125 37.5625 C-8.65775542 32.76162195 -7.09041348 26.71190668 -5.1875 21 C-4.78080078 19.83726562 -4.37410156 18.67453125 -3.95507812 17.4765625 C-2.11044732 12.05737823 -0.89621195 7.75077839 -1 2 C-0.67 1.34 -0.34 0.68 0 0 Z " fill="#7E55D6" transform="translate(627,408)"/>
<path d="M0 0 C6.27 0 12.54 0 19 0 C19.73605469 1.80984375 20.47210938 3.6196875 21.23046875 5.484375 C21.96195972 7.28175282 22.69345457 9.07912906 23.42504883 10.87646484 C24.16717443 12.70005495 24.90878972 14.5238527 25.65039062 16.34765625 C27.09654992 19.899967 28.54698618 23.45048778 30 27 C30.47646973 28.16595703 30.95293945 29.33191406 31.44384766 30.53320312 C31.89163574 31.62052734 32.33942383 32.70785156 32.80078125 33.828125 C33.20079346 34.80168945 33.60080566 35.77525391 34.01293945 36.77832031 C34.8091937 38.92889463 34.8091937 38.92889463 36 40 C41.61 26.8 47.22 13.6 53 0 C58.61 0 64.22 0 70 0 C67.20797575 9.08449681 63.43356972 17.7508471 59.75 26.5 C58.77550305 28.82264025 57.80194069 31.14567058 56.82849121 33.46875 C56.1850749 35.00406661 55.54127921 36.53922429 54.89709473 38.07421875 C51.55933686 46.03365049 48.27853533 54.01600204 45 62 C38.73 62 32.46 62 26 62 C21.55413202 52.54480008 17.41458027 43.00219899 13.41333008 33.35253906 C12.43828717 31.00189772 11.45869102 28.65319264 10.47851562 26.3046875 C6.8478159 17.58468732 3.34500442 8.83440708 0 0 Z " fill="#040404" transform="translate(337,535)"/>
<path d="M0 0 C5.94 0 11.88 0 18 0 C18 28.38 18 56.76 18 86 C12.06 86 6.12 86 0 86 C0 57.62 0 29.24 0 0 Z " fill="#040404" transform="translate(681,511)"/>
<path d="M0 0 C5.94 0 11.88 0 18 0 C18 20.46 18 40.92 18 62 C12.06 62 6.12 62 0 62 C0 41.54 0 21.08 0 0 Z " fill="#040404" transform="translate(415,535)"/>
<path d="M0 0 C5.94 0 11.88 0 18 0 C18 20.46 18 40.92 18 62 C12.06 62 6.12 62 0 62 C0 41.54 0 21.08 0 0 Z " fill="#050505" transform="translate(311,535)"/>
<path d="M0 0 C0.66 0.33 1.32 0.66 2 1 C1.85552715 3.25008777 1.70933311 5.50006502 1.5625 7.75 C1.51810791 8.43666748 1.47371582 9.12333496 1.42797852 9.83081055 C1.16355283 13.83344403 0.83056517 17.82008089 0.4375 21.8125 C-0.2687623 29.85726896 -0.08067649 37.93235125 0 46 C0.66 46 1.32 46 2 46 C2 46.99 2 47.98 2 49 C2.66 49 3.32 49 4 49 C4 49.99 4 50.98 4 52 C4.99 52.495 4.99 52.495 6 53 C4.68 53.66 3.36 54.32 2 55 C2 55.66 2 56.32 2 57 C-3.41176471 61 -3.41176471 61 -6 61 C-6.495 61.99 -6.495 61.99 -7 63 C-8.94912701 64.52958397 -10.96719425 65.93997824 -12.9921875 67.3671875 C-15.07222025 69.05873164 -16.48515843 70.79919243 -18 73 C-18.23074219 72.33613281 -18.46148438 71.67226563 -18.69921875 70.98828125 C-21.67171228 62.94022563 -25.42306836 58.2706342 -33 54 C-36.95847693 52.52507454 -40.95910158 51.22927007 -45 50 C-42.45500042 49.29091804 -40.62538808 49.00764514 -37.9375 49.0625 C-34.80666091 49.25885068 -34.80666091 49.25885068 -32 47 C-33.65 46.67 -35.3 46.34 -37 46 C-37 45.67 -37 45.34 -37 45 C-35.91460938 44.97421875 -34.82921875 44.9484375 -33.7109375 44.921875 C-32.26558651 44.86556262 -30.82027556 44.808216 -29.375 44.75 C-28.66214844 44.73582031 -27.94929687 44.72164063 -27.21484375 44.70703125 C-20.68610599 44.40754787 -17.18293922 42.06700163 -12.42578125 37.5625 C-8.65775542 32.76162195 -7.09041348 26.71190668 -5.1875 21 C-4.78080078 19.83726562 -4.37410156 18.67453125 -3.95507812 17.4765625 C-2.11044732 12.05737823 -0.89621195 7.75077839 -1 2 C-0.67 1.34 -0.34 0.68 0 0 Z " fill="#523FE2" transform="translate(627,408)"/>
<path d="M0 0 C3.465 -0.0825 6.93 -0.165 10.5 -0.25 C12.11358398 -0.30462402 12.11358398 -0.30462402 13.75976562 -0.36035156 C20.06228329 -0.43244678 24.75691015 0.36754881 30 4 C33.0352394 7.13009063 33.29143784 10.15911831 33.5625 14.375 C33.42073918 19.37713163 32.2618056 22.02095637 28.8984375 25.66015625 C23.14597133 29.72002435 16.85240783 29.24258656 10.125 29.125 C6.78375 29.08375 3.4425 29.0425 0 29 C0 19.43 0 9.86 0 0 Z " fill="#F8F8F8" transform="translate(537,531)"/>
<path d="M0 0 C5.89326966 -0.08785838 11.63818359 0.21502754 17.5 0.8125 C18.70462891 0.91788086 18.70462891 0.91788086 19.93359375 1.02539062 C25.40313959 1.579437 29.92652286 2.87635418 35 5 C32.28817788 7.60334924 31.10866187 7.99456691 27.25 8.1875 C26.1775 8.125625 25.105 8.06375 24 8 C25.28583984 8.43699219 25.28583984 8.43699219 26.59765625 8.8828125 C35.17865388 11.95920173 41.95028528 14.69030881 46.4375 22.9375 C51.07292423 34.9140038 47.41432673 50.56150156 46 63 C45.67 63 45.34 63 45 63 C45.02618408 62.02240723 45.05236816 61.04481445 45.0793457 60.03759766 C45.17071937 56.36628648 45.22756037 52.69507295 45.2746582 49.02294922 C45.29960626 47.44204741 45.33357805 45.86125858 45.37719727 44.28076172 C45.63335456 34.75171039 45.64128638 27.16873532 40 19 C39.01 19 38.02 19 37 19 C36.08992187 18.44183594 35.17984375 17.88367188 34.2421875 17.30859375 C27.80582856 13.46066007 20.21687221 11.63835295 13.08105469 9.42993164 C11.11263831 8.81687666 9.15410142 8.17820162 7.1953125 7.53515625 C6.03016113 7.167854 4.86500977 6.80055176 3.66455078 6.42211914 C1 5 1 5 0.11279297 2.34155273 C0.07557129 1.56884033 0.03834961 0.79612793 0 0 Z " fill="#9ABCAC" transform="translate(561,450)"/>
<path d="M0 0 C2.65683189 1.49748707 4.84652751 2.84652751 7 5 C7.44169067 8.05397552 7.47716383 10.95030077 7 14 C4.81840855 16.75569447 3.12822506 18.43588747 0 20 C-6.81283762 20.68128376 -6.81283762 20.68128376 -9.82421875 18.953125 C-13.0879395 16.26628467 -14.80346471 14.44125877 -15.375 10.25 C-14.8528401 5.7246142 -13.15770622 4.2328897 -10 1 C-6.79148762 -0.60425619 -3.48064156 -0.49077692 0 0 Z " fill="#050505" transform="translate(324,506)"/>
<path d="M0 0 C3.98066095 1.57724302 5.60667274 2.41000911 8 6 C8.43492196 9.29298055 8.69293789 11.80334957 6.984375 14.75390625 C4.82268515 17.45601856 3.31001789 18.8966607 0 20 C-5.69818352 20.53756448 -8.55134467 19.60129241 -13 16 C-14.60847182 12.78305636 -14.61309149 9.47862778 -14 6 C-9.64517629 0.61377067 -6.83314325 -0.45554288 0 0 Z " fill="#050505" transform="translate(427,506)"/>
<path d="M0 0 C3.39573647 1.93090897 5.16010443 3.48757127 7.1875 6.8125 C7.1875 8.1325 7.1875 9.4525 7.1875 10.8125 C-2.7125 10.8125 -12.6125 10.8125 -22.8125 10.8125 C-21.68558642 5.1779321 -21.68558642 5.1779321 -18.375 2.5625 C-17.75753906 2.06234375 -17.14007812 1.5621875 -16.50390625 1.046875 C-11.49554191 -2.60818997 -5.66716381 -1.76518217 0 0 Z " fill="#F9F9F9" transform="translate(812.8125,549.1875)"/>
<path d="M0 0 C5.58046421 1.26258003 11.0495715 2.95398417 16.5 4.6875 C17.30268311 4.93983398 18.10536621 5.19216797 18.93237305 5.45214844 C20.92689344 6.12321809 22.87567306 6.92711028 24.8125 7.75 C25.3075 9.235 25.3075 9.235 25.8125 10.75 C14.42869816 10.86858127 3.16496238 10.61612792 -8.1875 9.75 C-8.1875 9.09 -8.1875 8.43 -8.1875 7.75 C-8.8475 7.09 -9.5075 6.43 -10.1875 5.75 C-7.40905142 0.78848468 -5.78249777 -0.85013143 0 0 Z " fill="#966ACC" transform="translate(644.1875,463.25)"/>
<path d="M0 0 C1.32 0.66 2.64 1.32 4 2 C3.42064697 2.38027344 2.84129395 2.76054687 2.24438477 3.15234375 C-6.16661017 9.49987136 -8.18137966 17.32083458 -11.0625 27 C-11.54874379 28.55422907 -12.03765676 30.10762572 -12.52929688 31.66015625 C-13.71717938 35.4312151 -14.86841342 39.21168649 -16 43 C-16.99 43 -17.98 43 -19 43 C-19 40.69 -19 38.38 -19 36 C-18.67 36 -18.34 36 -18 36 C-17.87882813 34.865625 -17.75765625 33.73125 -17.6328125 32.5625 C-17.46382749 31.04163488 -17.29454047 29.5208033 -17.125 28 C-17.04636719 27.25621094 -16.96773437 26.51242187 -16.88671875 25.74609375 C-15.42091181 12.77934001 -15.42091181 12.77934001 -12.265625 8.828125 C-11.60046875 8.30734375 -10.9353125 7.7865625 -10.25 7.25 C-9.19039062 6.40501953 -9.19039062 6.40501953 -8.109375 5.54296875 C-5.45336134 3.60014394 -2.79100044 1.74437527 0 0 Z " fill="#9864CD" transform="translate(624,474)"/>
<path d="M0 0 C0.99 0 1.98 0 3 0 C2.67 0.66 2.34 1.32 2 2 C0.93321306 4.93526276 0.93321306 4.93526276 0.53540039 7.8425293 C-0.33643655 12.98410118 -1.97611128 17.85313946 -3.5625 22.8125 C-3.87251953 23.85470703 -4.18253906 24.89691406 -4.50195312 25.97070312 C-6.89048574 33.38772545 -10.14127592 38.79025605 -16 44 C-19.3125 45.6875 -19.3125 45.6875 -22 46 C-22.99 45.34 -23.98 44.68 -25 44 C-24.39671875 43.63648438 -23.7934375 43.27296875 -23.171875 42.8984375 C-22.37265625 42.39570313 -21.5734375 41.89296875 -20.75 41.375 C-19.56664062 40.64410156 -19.56664062 40.64410156 -18.359375 39.8984375 C-12.88078363 35.49016696 -10.95374443 29.66013373 -8.9375 23.1875 C-8.44661458 21.66015625 -7.95572917 20.1328125 -7.46484375 18.60546875 C-7.22556152 17.85177002 -6.9862793 17.09807129 -6.73974609 16.3215332 C-5.97342772 13.91660863 -5.197473 11.51532226 -4.41015625 9.1171875 C-4.17562744 8.40030762 -3.94109863 7.68342773 -3.69946289 6.94482422 C-2.76912541 4.35806388 -1.68451673 2.17583411 0 0 Z " fill="#D8D0F5" transform="translate(626,407)"/>
<path d="M0 0 C0.66 0.33 1.32 0.66 2 1 C1.23833623 13.68771496 0.13343718 26.34081003 -1 39 C-1.60714844 38.65066406 -2.21429687 38.30132812 -2.83984375 37.94140625 C-5.04807694 36.68337899 -5.04807694 36.68337899 -7.5625 37.9375 C-8.366875 38.288125 -9.17125 38.63875 -10 39 C-10.99 38.67 -11.98 38.34 -13 38 C-12.42765625 37.08347656 -11.8553125 36.16695313 -11.265625 35.22265625 C-8.41004076 30.21782937 -6.61962429 24.86979725 -4.75 19.4375 C-4.38648438 18.42236328 -4.02296875 17.40722656 -3.6484375 16.36132812 C-3.30554688 15.37455078 -2.96265625 14.38777344 -2.609375 13.37109375 C-2.29967773 12.48349365 -1.98998047 11.59589355 -1.67089844 10.68139648 C-0.92588589 7.70378628 -0.95825045 5.05761956 -1 2 C-0.67 1.34 -0.34 0.68 0 0 Z " fill="#664DEE" transform="translate(627,408)"/>
<path d="M0 0 C4.1500389 3.57761974 6.58623596 7.71558503 7.27124023 13.15307617 C7.36819171 15.54703182 7.36308647 17.91713687 7.3125 20.3125 C7.30412109 21.17391602 7.29574219 22.03533203 7.28710938 22.92285156 C7.12720308 31.68251833 6.17337291 40.32542167 5 49 C5.99 49 6.98 49 8 49 C8.09796875 48.41734375 8.1959375 47.8346875 8.296875 47.234375 C9.57076466 40.24994549 11.6333109 33.68647116 14 27 C14.33 27 14.66 27 15 27 C14.52099507 32.55897826 13.71278613 37.66013737 12 43 C11.67 44.093125 11.34 45.18625 11 46.3125 C10 49 10 49 8 51 C5.375 50.625 5.375 50.625 3 50 C2.97173856 47.60405763 2.95100857 45.2085497 2.9375 42.8125 C2.93036987 41.68835693 2.93036987 41.68835693 2.9230957 40.54150391 C2.92085714 36.16019629 3.0449889 31.81403228 3.328125 27.44140625 C3.38621338 26.51545654 3.44430176 25.58950684 3.50415039 24.63549805 C3.62407392 22.82993835 3.75811078 21.02524659 3.90795898 19.22192383 C4.28026283 13.52911917 3.59094814 10.08473572 1 5 C0.3125 2.0625 0.3125 2.0625 0 0 Z " fill="#F0E6F2" transform="translate(600,468)"/>
<path d="M0 0 C0.66 0.33 1.32 0.66 2 1 C1.67 2.32 1.34 3.64 1 5 C-1.43757413 5.02698422 -3.87484915 5.04683099 -6.3125 5.0625 C-7.00279297 5.07087891 -7.69308594 5.07925781 -8.40429688 5.08789062 C-11.5483025 5.10307906 -13.99420019 5.00193327 -17 4 C-19.92960457 3.85064761 -22.81972621 3.7688442 -25.75 3.75 C-26.53632812 3.729375 -27.32265625 3.70875 -28.1328125 3.6875 C-34.43629923 3.64561637 -39.19674151 4.56531809 -44.109375 8.83203125 C-47.35114938 12.74531604 -49.76137821 16.41082533 -52 21 C-52.99 21.33 -53.98 21.66 -55 22 C-53.4461292 14.64501155 -51.24337571 9.44218944 -45 5 C-39.31690811 1.43711358 -34.77616545 0.43074673 -28.125 0.6875 C-27.31506592 0.70296875 -26.50513184 0.7184375 -25.6706543 0.734375 C-17.10562291 0.93304201 -8.54727248 1.42813948 0 2 C0 1.34 0 0.68 0 0 Z " fill="#F2EFF7" transform="translate(670,472)"/>
<path d="M0 0 C23.19527431 -0.33670559 23.19527431 -0.33670559 33 4 C28.59846311 8.13810326 23.75679897 7.53336075 18.05859375 7.359375 C12.16271693 6.96979827 6.32748992 5.57753962 1 3 C0.67 2.01 0.34 1.02 0 0 Z " fill="#915DCF" transform="translate(563,451)"/>
<path d="M0 0 C0.66 0 1.32 0 2 0 C3.1939405 3.6360661 2.94803356 6.81096076 2.66015625 10.6015625 C2.56669922 11.89707031 2.47324219 13.19257813 2.37695312 14.52734375 C2.27262314 15.89326651 2.16780238 17.25915186 2.0625 18.625 C1.42175 27.09271056 0.8072922 35.50322352 1 44 C0.34 43.67 -0.32 43.34 -1 43 C-1 42.34 -1 41.68 -1 41 C-1.66 41 -2.32 41 -3 41 C-3.68700297 27.23449597 -1.6641837 13.63509376 0 0 Z " fill="#ECE4F0" transform="translate(629,409)"/>
<path d="M0 0 C2.21641666 2.13725892 4.21237408 4.26859074 6.125 6.6875 C7.79090954 9.06757788 7.79090954 9.06757788 10 10 C10 10.99 10 11.98 10 13 C8.730447 13.64834654 7.45930294 14.29357815 6.1875 14.9375 C5.47980469 15.29714844 4.77210938 15.65679687 4.04296875 16.02734375 C2 17 2 17 -1 18 C-1 18.66 -1 19.32 -1 20 C-2.65 20.66 -4.3 21.32 -6 22 C-6 22.66 -6 23.32 -6 24 C-7.43209004 25.03723394 -8.8965848 26.02993577 -10.375 27 C-14.20473362 29.84374254 -15.6741654 31.72865867 -16.5625 36.4375 C-16.74560077 37.95429778 -16.90488888 39.47515402 -17 41 C-17.33 41 -17.66 41 -18 41 C-18.56606361 30.20286069 -18.56606361 30.20286069 -15 26 C-11.5862069 23 -11.5862069 23 -9 23 C-8.67 22.01 -8.34 21.02 -8 20 C-6.22265625 18.61328125 -6.22265625 18.61328125 -4.0625 17.3125 C-3.35222656 16.87550781 -2.64195312 16.43851562 -1.91015625 15.98828125 C0 15 0 15 2 15 C2 14.34 2 13.68 2 13 C2.99 12.34 3.98 11.68 5 11 C4.67 9.68 4.34 8.36 4 7 C3.34 7 2.68 7 2 7 C2 6.01 2 5.02 2 4 C1.34 4 0.68 4 0 4 C0 2.68 0 1.36 0 0 Z " fill="#6648DB" transform="translate(627,450)"/>
<path d="M0 0 C2.64 0 5.28 0 8 0 C8 0.33 8 0.66 8 1 C6.02 1 4.04 1 2 1 C2.86142249 3.29497286 2.86142249 3.29497286 5.66455078 3.97387695 C6.82970215 4.30863037 7.99485352 4.64338379 9.1953125 4.98828125 C10.48185739 5.36884813 11.7683128 5.74971761 13.0546875 6.13085938 C15.0806624 6.72132122 17.107694 7.30755393 19.13671875 7.88745117 C26.5163562 10.00873448 33.08005667 11.91676598 39 17 C38.505 18.485 38.505 18.485 38 20 C36.98808594 19.278125 35.97617187 18.55625 34.93359375 17.8125 C28.25477027 13.63179498 20.51047945 11.67208097 13.02612305 9.375 C11.06449369 8.76813944 9.11251597 8.13594471 7.16015625 7.5 C5.42197632 6.95859375 5.42197632 6.95859375 3.64868164 6.40625 C1 5 1 5 0.11499023 2.34375 C0.07704346 1.5703125 0.03909668 0.796875 0 0 Z " fill="#ADA6EF" transform="translate(561,450)"/>
<path d="M0 0 C0.33 0.66 0.66 1.32 1 2 C0 4 0 4 -3.4375 5.4375 C-7.19068113 6.70190988 -7.19068113 6.70190988 -9 10 C-13.62 8.35 -18.24 6.7 -23 5 C-19 4 -19 4 -15.9375 4.0625 C-12.80666091 4.25885068 -12.80666091 4.25885068 -10 2 C-11.65 1.67 -13.3 1.34 -15 1 C-15 0.67 -15 0.34 -15 0 C-13.25093341 -0.19601608 -11.50068154 -0.38147403 -9.75 -0.5625 C-8.77546875 -0.66691406 -7.8009375 -0.77132813 -6.796875 -0.87890625 C-4.21340534 -0.99076038 -2.40387135 -0.92074889 0 0 Z " fill="#654CE3" transform="translate(605,453)"/>
<path d="M0 0 C2.07273529 5.67110507 -1.07373051 11.27568779 -2.9375 16.6875 C-3.48760742 18.40743164 -3.48760742 18.40743164 -4.04882812 20.16210938 C-6.65237984 27.78087797 -9.8432226 33.68124805 -16 39 C-19.5 40.5625 -19.5 40.5625 -22 41 C-22 40.34 -22 39.68 -22 39 C-21.113125 38.62875 -20.22625 38.2575 -19.3125 37.875 C-13.10046204 34.3587521 -10.53606721 29.7367552 -8.359375 23.10546875 C-8.14686096 22.47264481 -7.93434692 21.83982086 -7.71539307 21.18782043 C-7.04758356 19.19165607 -6.39814287 17.19012622 -5.75 15.1875 C-5.08393767 13.16840844 -4.41413925 11.15061758 -3.74176025 9.13362122 C-3.1384963 7.31810879 -2.54506945 5.49933648 -1.95214844 3.68041992 C-1 1 -1 1 0 0 Z " fill="#91AAB4" transform="translate(626,412)"/>
<path d="M0 0 C0.66 0.33 1.32 0.66 2 1 C1.67 2.32 1.34 3.64 1 5 C-8.3036294 5.22877777 -16.84555798 4.82555831 -26 3 C-27.99904405 2.66098083 -29.99882145 2.32618329 -32 2 C-32 1.67 -32 1.34 -32 1 C-21.28907291 0.84501874 -10.68514555 1.32157806 0 2 C0 1.34 0 0.68 0 0 Z " fill="#BDB0EF" transform="translate(670,472)"/>
<path d="M0 0 C0.33 0 0.66 0 1 0 C1.20651017 5.16275417 0.88214551 10.1750428 0.3125 15.3125 C0.18488281 16.50488281 0.05726563 17.69726562 -0.07421875 18.92578125 C-1 22 -1 22 -3.58203125 23.91796875 C-4.77892578 24.45357422 -4.77892578 24.45357422 -6 25 C-7.22095366 21.50347185 -6.76884532 19.47527427 -5.56640625 16.015625 C-5.24736328 15.08105469 -4.92832031 14.14648438 -4.59960938 13.18359375 C-4.08624023 11.73146484 -4.08624023 11.73146484 -3.5625 10.25 C-3.22412109 9.26644531 -2.88574219 8.28289062 -2.53710938 7.26953125 C-1.7007587 4.84293634 -0.85478572 2.42014972 0 0 Z " fill="#7456D6" transform="translate(625,418)"/>
<path d="M0 0 C0.70125 0.0721875 1.4025 0.144375 2.125 0.21875 C6.51810089 0.64850987 10.83350923 1.06790819 15.25 0.9375 C19 1 19 1 22.25 1.9375 C27.44515169 3.40945965 32.62726057 3.66475517 38 4 C38 4.33 38 4.66 38 5 C28.93418659 5.20273483 20.17846644 4.63731883 11.1875 3.5 C10.00607422 3.35691406 8.82464844 3.21382813 7.60742188 3.06640625 C4.73736254 2.71781605 1.86835788 2.36227832 -1 2 C-0.67 1.34 -0.34 0.68 0 0 Z " fill="#DCD6F5" transform="translate(563,448)"/>
<path d="M0 0 C1.32 0.66 2.64 1.32 4 2 C3.34 2 2.68 2 2 2 C2 2.66 2 3.32 2 4 C0.56790996 5.03723394 -0.8965848 6.02993577 -2.375 7 C-6.20473362 9.84374254 -7.6741654 11.72865867 -8.5625 16.4375 C-8.74560077 17.95429778 -8.90488888 19.47515402 -9 21 C-9.33 21 -9.66 21 -10 21 C-10.56606361 10.20286069 -10.56606361 10.20286069 -7 6 C-3.5862069 3 -3.5862069 3 -1 3 C-0.67 2.01 -0.34 1.02 0 0 Z " fill="#6F4FD9" transform="translate(619,470)"/>
<path d="M0 0 C0.33 0 0.66 0 1 0 C0.52099507 5.55897826 -0.28721387 10.66013737 -2 16 C-2.33 17.093125 -2.66 18.18625 -3 19.3125 C-4 22 -4 22 -6 24 C-7.32 24 -8.64 24 -10 24 C-10 22.35 -10 20.7 -10 19 C-9.67 19.99 -9.34 20.98 -9 22 C-8.01 22 -7.02 22 -6 22 C-5.90203125 21.41734375 -5.8040625 20.8346875 -5.703125 20.234375 C-4.42923534 13.24994549 -2.3666891 6.68647116 0 0 Z " fill="#E3DBF2" transform="translate(614,495)"/>
<path d="M0 0 C0.66 0.99 1.32 1.98 2 3 C-0.82455312 7.67137631 -3.50271646 10.85190152 -8 14 C-11.375 14.8125 -11.375 14.8125 -14 15 C-12.15658318 12.95175909 -10.53278223 11.72576348 -8.125 10.3125 C-4.22749051 7.42834297 -2.30265532 4.19776102 0 0 Z " fill="#B2AAF1" transform="translate(615,437)"/>
<path d="M0 0 C4.29 0 8.58 0 13 0 C13 0.33 13 0.66 13 1 C11.35 1.33 9.7 1.66 8 2 C11.465 3.485 11.465 3.485 15 5 C15 5.33 15 5.66 15 6 C9.33895411 5.50341703 5.12325529 4.45489316 0 2 C0 1.34 0 0.68 0 0 Z " fill="#8C6ADA" transform="translate(563,451)"/>
<path d="M0 0 C3.39298926 4.52398569 4.13323779 6.74069044 4.0625 12.1875 C4.05347656 13.08855469 4.04445313 13.98960937 4.03515625 14.91796875 C4.02355469 15.60503906 4.01195312 16.29210937 4 17 C3.34 16.67 2.68 16.34 2 16 C2 15.34 2 14.68 2 14 C1.34 14 0.68 14 0 14 C0 9.38 0 4.76 0 0 Z " fill="#D3C6DE" transform="translate(626,436)"/>
<path d="M0 0 C0.33 0 0.66 0 1 0 C1.24794402 6.5705166 0.32388229 12.56971459 -1 19 C-1.99 19.33 -2.98 19.66 -4 20 C-2.66666667 13.33333333 -1.33333333 6.66666667 0 0 Z " fill="#8959D0" transform="translate(625,418)"/>
<path d="M0 0 C0.5775 0.20625 1.155 0.4125 1.75 0.625 C0.76 1.12 0.76 1.12 -0.25 1.625 C-0.25 2.285 -0.25 2.945 -0.25 3.625 C-4.88860826 4.92960857 -8.56700039 4.45585477 -13.25 3.625 C-14.24 2.965 -15.23 2.305 -16.25 1.625 C-15.23679687 1.65980469 -15.23679687 1.65980469 -14.203125 1.6953125 C-13.31109375 1.71335937 -12.4190625 1.73140625 -11.5 1.75 C-10.61828125 1.77320313 -9.7365625 1.79640625 -8.828125 1.8203125 C-5.43779893 1.56346962 -3.31005412 -0.55167569 0 0 Z " fill="#7753D5" transform="translate(598.25,455.375)"/>
<path d="M0 0 C0.33 0 0.66 0 1 0 C1 1.65 1 3.3 1 5 C-5.625 7.125 -5.625 7.125 -9 6 C-6.6875 3.5 -6.6875 3.5 -4 1 C-3.01 1 -2.02 1 -1 1 C-0.67 0.67 -0.34 0.34 0 0 Z " fill="#664ADC" transform="translate(623,440)"/>
<path d="M0 0 C2.64 0 5.28 0 8 0 C8 0.66 8 1.32 8 2 C8.99 1.67 9.98 1.34 11 1 C13.125 1.625 13.125 1.625 15 3 C15.75 5.625 15.75 5.625 16 8 C15.21625 7.401875 14.4325 6.80375 13.625 6.1875 C9.46653897 3.37853954 4.80888628 2.25449207 0 1 C0 0.67 0 0.34 0 0 Z " fill="#ECE5F5" transform="translate(657,467)"/>
<path d="M0 0 C2.21641666 2.13725892 4.21237408 4.26859074 6.125 6.6875 C7.79090954 9.06757788 7.79090954 9.06757788 10 10 C9.67 10.99 9.34 11.98 9 13 C8.01 12.67 7.02 12.34 6 12 C6 11.34 6 10.68 6 10 C5.34 10 4.68 10 4 10 C4 9.01 4 8.02 4 7 C3.34 7 2.68 7 2 7 C2 6.01 2 5.02 2 4 C1.34 4 0.68 4 0 4 C0 2.68 0 1.36 0 0 Z " fill="#6C51EE" transform="translate(627,450)"/>
<path d="M0 0 C1.32 0.66 2.64 1.32 4 2 C1.36 4.31 -1.28 6.62 -4 9 C-5 6 -5 6 -4 3 C-1.9375 1.3125 -1.9375 1.3125 0 0 Z " fill="#8862DB" transform="translate(624,474)"/>
<path d="M0 0 C0.99386719 0.10183594 1.98773437 0.20367187 3.01171875 0.30859375 C3.77097656 0.39238281 4.53023437 0.47617187 5.3125 0.5625 C5.3125 0.8925 5.3125 1.2225 5.3125 1.5625 C-0.2975 2.2225 -5.9075 2.8825 -11.6875 3.5625 C-7.6052973 -0.5197027 -5.49232409 -0.5815402 0 0 Z " fill="#DED7F6" transform="translate(638.6875,473.4375)"/>
<path d="M0 0 C0.66 0.33 1.32 0.66 2 1 C1.67 5.95 1.34 10.9 1 16 C-1 14 -1 14 -1.23046875 11.25 C-1.21628906 10.1775 -1.20210937 9.105 -1.1875 8 C-1.18105469 6.9275 -1.17460938 5.855 -1.16796875 4.75 C-1 2 -1 2 0 0 Z " fill="#6E5AE2" transform="translate(627,408)"/>
<path d="M0 0 C0.33 0 0.66 0 1 0 C0.93993922 1.45947705 0.8511311 2.91779272 0.75 4.375 C0.70359375 5.18710937 0.6571875 5.99921875 0.609375 6.8359375 C0 9 0 9 -2.046875 10.2890625 C-3.01367188 10.64097656 -3.01367188 10.64097656 -4 11 C-3.5247412 9.35303396 -3.04468109 7.70745272 -2.5625 6.0625 C-2.29566406 5.14597656 -2.02882813 4.22945313 -1.75390625 3.28515625 C-1 1 -1 1 0 0 Z " fill="#E3DCF3" transform="translate(619,483)"/>
<path d="M0 0 C0.99 0.33 1.98 0.66 3 1 C1.68 4.3 0.36 7.6 -1 11 C-1.66 11 -2.32 11 -3 11 C-2.69078116 9.54096742 -2.37751201 8.08279278 -2.0625 6.625 C-1.88847656 5.81289063 -1.71445312 5.00078125 -1.53515625 4.1640625 C-1 2 -1 2 0 0 Z " fill="#6E50DD" transform="translate(616,483)"/>
<path d="M0 0 C2.4375 0.75 2.4375 0.75 5 2 C5.8125 4.125 5.8125 4.125 6 6 C7.65 6.33 9.3 6.66 11 7 C11 7.66 11 8.32 11 9 C5.33644285 7.68289369 3.29411959 5.5536359 0 1 C0 0.67 0 0.34 0 0 Z " fill="#E3D5EF" transform="translate(630,453)"/>
<path d="M0 0 C0.66 0 1.32 0 2 0 C1.34 2.64 0.68 5.28 0 8 C-0.33 8 -0.66 8 -1 8 C-1.04241723 5.66705225 -1.04092937 3.33297433 -1 1 C-0.67 0.67 -0.34 0.34 0 0 Z M-3 11 C-2.67 11.99 -2.34 12.98 -2 14 C-2.66 14.99 -3.32 15.98 -4 17 C-4.042721 15.33388095 -4.04063832 13.66617115 -4 12 C-3.67 11.67 -3.34 11.34 -3 11 Z " fill="#F5F4F4" transform="translate(616,493)"/>
<path d="M0 0 C1.8871875 0.0309375 1.8871875 0.0309375 3.8125 0.0625 C3.8125 0.3925 3.8125 0.7225 3.8125 1.0625 C1.8325 1.0625 -0.1475 1.0625 -2.1875 1.0625 C-2.1875 1.7225 -2.1875 2.3825 -2.1875 3.0625 C-4.4975 3.3925 -6.8075 3.7225 -9.1875 4.0625 C-6.53873473 0.0893521 -4.49238456 -0.07364565 0 0 Z " fill="#5C4BE5" transform="translate(638.1875,469.9375)"/>
<path d="M0 0 C3.17538332 0.34021964 4.02276865 1.02466604 6.25 3.4375 C8 6 8 6 8 8 C7.01 8 6.02 8 5 8 C3.09122416 5.41753857 1.43622754 2.87245509 0 0 Z " fill="#A2B5B7" transform="translate(599,466)"/>
<path d="M0 0 C3.48331435 3.01887244 4.79157144 5.56909529 6 10 C5.34 10 4.68 10 4 10 C0 3.375 0 3.375 0 0 Z " fill="#E8E1F0" transform="translate(600,468)"/>
<path d="M0 0 C0.99 0.33 1.98 0.66 3 1 C-0.465 3.97 -0.465 3.97 -4 7 C-3.6875 4.625 -3.6875 4.625 -3 2 C-2.01 1.34 -1.02 0.68 0 0 Z " fill="#8756D1" transform="translate(615,478)"/>
<path d="M0 0 C3.9492568 0.55105909 7.34920174 1.38935371 11 3 C11 3.33 11 3.66 11 4 C3.49230769 3.38461538 3.49230769 3.38461538 1 1.4375 C0.67 0.963125 0.34 0.48875 0 0 Z " fill="#7D8EB6" transform="translate(567,453)"/>
<path d="M0 0 C0.99 0 1.98 0 3 0 C1.66666667 2.66666667 0.33333333 5.33333333 -1 8 C-1.66 8 -2.32 8 -3 8 C-2.25 2.25 -2.25 2.25 0 0 Z " fill="#C8BEF3" transform="translate(626,407)"/>
<path d="M0 0 C2.97 0.99 5.94 1.98 9 3 C4.44968209 4.13757948 2.36915594 3.4283779 -2 2 C-1.34 1.34 -0.68 0.68 0 0 Z " fill="#F4F2F5" transform="translate(643,460)"/>
<path d="M0 0 C2.4375 0.75 2.4375 0.75 5 2 C5.8125 4.125 5.8125 4.125 6 6 C2.535 4.02 2.535 4.02 -1 2 C-0.67 1.34 -0.34 0.68 0 0 Z " fill="#C8BDF3" transform="translate(594,464)"/>
</svg>
